<?xml version="1.0" encoding="utf-8"?>
<!-- Generator: Adobe Illustrator 25.4.1, SVG Export Plug-In . SVG Version: 6.00 Build 0)  -->
<svg version="1.1" xmlns="http://www.w3.org/2000/svg" xmlns:xlink="http://www.w3.org/1999/xlink" x="0px" y="0px"
	 viewBox="0 0 500 500" style="enable-background:new 0 0 500 500;" xml:space="preserve">
<style type="text/css">
	.st0{fill:#010200;}
	.st1{fill:#701E00;}
	.st2{fill:url(#SVGID_1_);}
	.st3{fill:url(#SVGID_00000172431542384009697340000001873135325715499930_);}
	.st4{opacity:0.13;}
	.st5{opacity:0.7;fill:#FFFFFF;}
</style>
<g id="Layer_2">
</g>
<g id="Layer_1">
	<g>
		<g>
			<rect x="212.2" y="389" class="st0" width="97.9" height="82.7"/>
			<rect x="204.5" y="60.2" class="st0" width="110.3" height="287.5"/>
			<rect x="203.9" y="378.3" class="st1" width="97.9" height="82.7"/>
			<rect x="196.2" y="49.5" class="st1" width="110.3" height="287.5"/>
			<linearGradient id="SVGID_1_" gradientUnits="userSpaceOnUse" x1="244.2887" y1="451.7681" x2="244.2887" y2="369.102">
				<stop  offset="8.073434e-08" style="stop-color:#FF4400"/>
				<stop  offset="1" style="stop-color:#FFD100"/>
			</linearGradient>
			<rect x="195.3" y="369.1" class="st2" width="97.9" height="82.7"/>
			
				<linearGradient id="SVGID_00000049193745860156364190000007043946570824144311_" gradientUnits="userSpaceOnUse" x1="242.8442" y1="327.8092" x2="242.8442" y2="40.2889">
				<stop  offset="8.073434e-08" style="stop-color:#FF4400"/>
				<stop  offset="1" style="stop-color:#FFD100"/>
			</linearGradient>
			
				<rect x="187.7" y="40.3" style="fill:url(#SVGID_00000049193745860156364190000007043946570824144311_);" width="110.3" height="287.5"/>
			<polygon class="st4" points="293.3,321 293.3,132.5 285.6,314.4 221,324.3 			"/>
			<polygon class="st4" points="285.9,444.4 285.9,382.3 278.2,437.9 213.7,447.8 			"/>
			<polygon class="st5" points="244.6,139.7 253.8,158.3 274.4,161.3 259.5,175.8 263,196.3 244.6,186.6 226.2,196.3 229.7,175.8 
				214.9,161.3 235.4,158.3 			"/>
			<polygon class="st5" points="201.4,437.9 201.4,376.1 271,373.1 208.4,384.2 			"/>
			<polygon class="st5" points="196.2,242.3 196.2,49.3 249.8,51.1 206.1,56.7 			"/>
		</g>
	</g>
</g>
</svg>
