<?xml version="1.0" encoding="utf-8"?>
<!-- Generator: Adobe Illustrator 25.4.1, SVG Export Plug-In . SVG Version: 6.00 Build 0)  -->
<svg version="1.1" id="Layer_4" xmlns="http://www.w3.org/2000/svg" xmlns:xlink="http://www.w3.org/1999/xlink" x="0px" y="0px"
	 viewBox="0 0 1689.8 433.4" style="enable-background:new 0 0 1689.8 433.4;" xml:space="preserve">
<style type="text/css">
	.st0{fill:#444240;}
	.st1{fill:#010200;}
	.st2{fill:#701E00;}
	.st3{fill:url(#SVGID_1_);}
	.st4{fill:url(#SVGID_00000072982390271947549470000005532927177528693905_);}
	.st5{fill:url(#SVGID_00000023967176645022555350000002043262713503437710_);}
	.st6{fill:url(#SVGID_00000071527460860808005680000012129281108975399337_);}
	.st7{fill:url(#SVGID_00000111886173118335357210000002684682617687758498_);}
	.st8{fill:url(#SVGID_00000011714638245456535030000005449083471203527050_);}
	.st9{fill:url(#SVGID_00000073701392932782419330000016525559917617424280_);}
	.st10{fill:url(#SVGID_00000157991920604891933580000002710225045034850997_);}
	.st11{fill:url(#SVGID_00000168811182191018825370000002701775591917746074_);}
	.st12{fill:url(#SVGID_00000051362761652593034090000012097802367694839740_);}
	.st13{fill:url(#SVGID_00000028305461124007577870000001287011454095217835_);}
	.st14{fill:url(#SVGID_00000127027599442115115930000002764559618094380985_);}
	.st15{fill:url(#SVGID_00000064321283151041352430000016356073629745223054_);}
	.st16{opacity:0.13;}
	.st17{opacity:0.7;}
	.st18{fill:#FFFFFF;}
</style>
<g>
	<g>
		<path class="st0" d="M201.9,188.7h73v19h-18c0,0,0,44,0,58s14,19.2,18,19.2s9,0,9,0s23,0.8,23-29.2s0-46.8,0-46.8h-19v-20.2h61.9
			v20h-18.9v57c0,0-13,40-56,40s-58-30.2-58-38.6c0-8.4,0-60.4,0-60.4h-15V188.7z"/>
		<polygon class="st0" points="341.1,157.2 407.6,157.2 462.9,252.7 462.9,176.9 441.9,176.9 441.9,156.7 504.1,156.7 504.1,176.7 
			484.9,176.7 484.9,299.7 442.9,299.7 385.9,194.7 385.9,281.7 404.9,281.7 404.9,299.7 341.9,299.7 341.9,280.7 361.9,280.7 
			361.9,176.7 341.1,176.7 		"/>
		<path class="st0" d="M597.9,182.7V173h18.2v50.5h-16.2c0,0-3-35.8-30-35.8s-33,27-33,54s13,44,31,44s31-12,31-33h16
			c0,0,8,51-50,51c-57,0-67-36-67-68s16.2-65.6,59.1-65.6C583.9,170.1,597.9,182.7,597.9,182.7z"/>
		<polygon class="st0" points="610.9,129.7 610.9,148.7 631.9,148.7 631.9,286.7 611.9,288.7 611.9,321.7 686.9,321.7 686.9,288.8 
			669.9,288.8 669.9,224.7 716.9,224.7 716.9,287.5 699.9,287.5 699.9,321.7 775.7,321.7 775.7,289.2 754.9,289.2 754.9,147.7 
			777.9,147.7 777.9,128.9 700.2,128.9 700.2,148.7 716.9,148.7 716.9,196.7 669.9,196.7 669.9,148.7 686.9,148.7 686.9,129.7 		"/>
		<rect x="767.9" y="201.7" class="st0" width="47" height="34"/>
		<path class="st0" d="M968.9,37.7c-97,0-141.8,49-141.8,151s63.8,137,138.8,137s152-25,152-150S1024.9,37.7,968.9,37.7z
			 M968.9,263.7c-61,0-55-77-55-77c0-9-4-85,56-85s60,59,60,78S1029.9,263.7,968.9,263.7z"/>
		<path class="st0" d="M1115.9,223.7v-19h78v20H1174c0,0,0,44,0,58s9.9,24,23.9,24s30-7,30-22s0-59.9,0-59.9h-20v-20.1h65.1v21
			h-20.1c0,0,0,38,0,56s-19,47-66,47s-55-38-55-50s0-55,0-55H1115.9z"/>
		<polygon class="st0" points="1210.9,105.7 1210.9,176.4 1260.8,176.4 1260.8,143.8 1296.9,143.8 1296.9,267.7 1266,267.7 
			1266,307.7 1405.9,307.7 1405.9,268.8 1369.9,268.8 1369.9,145.7 1410.9,145.7 1410.9,176.7 1457.9,176.7 1457.9,105.7 		"/>
		<rect x="1478.9" y="80.7" class="st0" width="67.1" height="157"/>
		<rect x="1482.9" y="266.7" class="st0" width="58.2" height="53.1"/>
		<rect x="1571.9" y="265.7" class="st0" width="64" height="54.1"/>
		<rect x="1566.9" y="50.7" class="st0" width="72.2" height="188"/>
		<path class="st0" d="M1674.9,26.7l-133-1v34l-87-1l-1,24l-269-2v102h-33c0-50-19-106-60-134c-26.6-18.1-50-32-123-32
			c-54.9,0-95.1,14.4-122.6,43.9c-25.7,27.6-29.4,42.1-37.4,68.1l-1-22h-223v41h-48v-14l-216.8,2.5v31.5H188v-25.8h29.9V40.1H18.3
			v95.7h34.6v182h-38v99l355-0.1v-81.9h146v-11c14.7,11.5,24.4,15,49,15c7.7,0,9.9-0.8,19-3.5v7.5l225-1v-64h13c10,51,77,83,144,84
			c81,1.2,135.2-40.3,143-52c1,10.5,31,48,77,48c28.2,0,52.8-1.8,67-14h188v-95.9h-41v-36.1h58l-1,144l217,1L1674.9,26.7z
			 M195.9,267.1c0,11.8,7.6,26.6,19.5,37.7c5,4.7,11.8,9.8,20.7,13.9h-40.2V267.1z M973.9,239.7c-10.8,0-15.2-5.9-18-9
			c-5.9-6.5-8.9-14.6-10-22c-1.4-9.2-0.9-17-0.9-17c0,0,1.1-39.9,11.9-51.2c2.8-2.9,7.6-6.8,17.9-6.8c18.7,0,24.9,9.1,28.3,17
			c4.9,11.6,4.9,26.2,4.9,33.3C1007.9,233.1,990.7,239.7,973.9,239.7z"/>
		<polygon class="st0" points="73.9,114.7 39.3,114.7 39.3,61.1 190.9,61.1 190.9,117.3 161,117.3 161,339.7 294.9,339.7 294.9,319 
			337.9,319 337.9,385.7 39.9,385.8 39.9,338.7 73.9,338.7 		"/>
	</g>
	<g>
		<path class="st1" d="M212.9,201.7h73v19h-18c0,0,0,44,0,58s14,19.2,18,19.2s9,0,9,0s23,0.8,23-29.2s0-46.8,0-46.8h-19v-20.2h61.9
			v20h-18.9c0,0,0,49.6,0,57s-13,40-56,40s-58-30.2-58-38.6c0-8.4,0-60.4,0-60.4h-15V201.7z"/>
		<polygon class="st1" points="352.1,170.2 418.6,170.2 473.9,265.7 473.9,189.9 452.9,189.9 452.9,169.7 515.1,169.7 515.1,189.7 
			495.9,189.7 495.9,312.7 453.9,312.7 396.9,207.7 396.9,294.7 415.9,294.7 415.9,312.7 352.9,312.7 352.9,293.7 372.9,293.7 
			372.9,189.7 352.1,189.7 		"/>
		<path class="st1" d="M608.9,195.7V186h18.2v50.5h-16.2c0,0-3-35.8-30-35.8s-33,27-33,54s13,44,31,44s31-12,31-33h16
			c0,0,8,51-50,51c-57,0-67-36-67-68s16.2-65.6,59.1-65.6C594.9,183.1,608.9,195.7,608.9,195.7z"/>
		<polygon class="st1" points="621.9,142.7 621.9,161.7 642.9,161.7 642.9,299.7 622.9,301.7 622.9,320.7 697.9,320.7 697.9,301.8 
			680.9,301.8 680.9,237.7 727.9,237.7 727.9,300.5 710.9,300.5 710.9,320.7 786.7,320.7 786.7,302.2 765.9,302.2 765.9,160.7 
			788.9,160.7 788.9,141.9 711.2,141.9 711.2,161.7 727.9,161.7 727.9,209.7 680.9,209.7 680.9,161.7 697.9,161.7 697.9,142.7 		"/>
		<rect x="778.9" y="214.7" class="st1" width="47" height="34"/>
		<path class="st1" d="M979.9,50.7c-97,0-141.8,49-141.8,151s63.8,137,138.8,137s152-25,152-150S1035.9,50.7,979.9,50.7z
			 M979.9,276.7c-61,0-55-77-55-77c0-9-4-85,56-85c60,0,60,59,60,78S1040.9,276.7,979.9,276.7z"/>
		<path class="st1" d="M1126.9,236.7v-19h78v20h-19.9c0,0,0,44,0,58s9.9,24,23.9,24s30-7,30-22s0-59.9,0-59.9h-20v-20.1h65.1v21
			h-20.1c0,0,0,38,0,56s-19,47-66,47s-55-38-55-50s0-55,0-55H1126.9z"/>
		<polygon class="st1" points="1221.9,118.7 1221.9,189.4 1271.8,189.4 1271.8,156.8 1307.9,156.8 1307.9,280.7 1277,280.7 
			1277,320.7 1416.9,320.7 1416.9,281.8 1380.9,281.8 1380.9,158.7 1421.9,158.7 1421.9,189.7 1468.9,189.7 1468.9,118.7 		"/>
		<rect x="1489.9" y="93.7" class="st1" width="67.1" height="157"/>
		<rect x="1493.9" y="279.7" class="st1" width="58.2" height="53.1"/>
		<rect x="1582.9" y="278.7" class="st1" width="64" height="54.1"/>
		<rect x="1577.9" y="63.7" class="st1" width="72.2" height="188"/>
		<polygon class="st1" points="84.9,127.7 50.3,127.7 50.3,74.1 201.9,74.1 201.9,130.3 172.1,130.3 172.1,352.7 306,352.7 306,332 
			348.9,332 348.9,398.7 50.9,398.8 50.9,351.7 84.9,351.7 		"/>
	</g>
	<g>
		<path class="st2" d="M207.5,194.7h73v19h-18c0,0,0,44,0,58s14,19.2,18,19.2s9,0,9,0s23,0.8,23-29.2s0-46.8,0-46.8h-19v-20.2h61.9
			v20h-18.9c0,0,0,42.6,0,57s-13,40-56,40s-58-30.2-58-38.6c0-8.4,0-60.4,0-60.4h-15V194.7z"/>
		<polygon class="st2" points="346.7,163.2 413.2,163.2 468.5,258.7 468.5,182.9 447.5,182.9 447.5,162.7 509.7,162.7 509.7,182.7 
			490.5,182.7 490.5,305.7 448.5,305.7 391.5,200.7 391.5,287.7 410.5,287.7 410.5,305.7 347.5,305.7 347.5,286.7 367.5,286.7 
			367.5,182.7 346.7,182.7 		"/>
		<path class="st2" d="M603.5,188.7V179h18.2v50.5h-16.2c0,0-3-35.8-30-35.8s-33,27-33,54s13,44,31,44s31-12,31-33h16
			c0,0,8,51-50,51c-57,0-67-36-67-68s16.2-65.6,59.1-65.6C589.5,176.1,603.5,188.7,603.5,188.7z"/>
		<polygon class="st2" points="616.5,135.7 616.5,154.7 637.5,154.7 637.5,292.7 617.5,294.7 617.5,313.7 692.5,313.7 692.5,294.8 
			675.5,294.8 675.5,230.7 722.5,230.7 722.5,293.5 705.5,293.5 705.5,313.7 781.3,313.7 781.3,295.2 760.5,295.2 760.5,153.7 
			783.5,153.7 783.5,134.9 705.8,134.9 705.8,154.7 722.5,154.7 722.5,202.7 675.5,202.7 675.5,154.7 692.5,154.7 692.5,135.7 		"/>
		<rect x="773.5" y="207.7" class="st2" width="47" height="34"/>
		<path class="st2" d="M974.5,43.7c-97,0-141.8,49-141.8,151s63.8,137,138.8,137s152-25,152-150S1030.5,43.7,974.5,43.7z
			 M974.5,269.7c-61,0-55-77-55-77c0-9-4-85,56-85s60,59,60,78S1035.5,269.7,974.5,269.7z"/>
		<path class="st2" d="M1121.5,229.7v-19h78v20h-19.9c0,0,0,44,0,58s9.9,24,23.9,24s30-7,30-22s0-59.9,0-59.9h-20v-20.1h65.1v21
			h-20.1c0,0,0,38,0,56s-19,47-66,47s-55-38-55-50s0-55,0-55H1121.5z"/>
		<polygon class="st2" points="1216.5,111.7 1216.5,182.4 1266.4,182.4 1266.4,149.8 1302.5,149.8 1302.5,273.7 1271.6,273.7 
			1271.6,313.7 1411.5,313.7 1411.5,274.8 1375.5,274.8 1375.5,151.7 1416.5,151.7 1416.5,182.7 1463.5,182.7 1463.5,111.7 		"/>
		<rect x="1484.5" y="86.7" class="st2" width="67.1" height="157"/>
		<rect x="1488.5" y="272.7" class="st2" width="58.2" height="53.1"/>
		<rect x="1577.5" y="271.7" class="st2" width="64" height="54.1"/>
		<rect x="1572.5" y="56.7" class="st2" width="72.2" height="188"/>
		<polygon class="st2" points="79.5,120.7 44.9,120.7 44.9,67.1 196.5,67.1 196.5,123.3 166.6,123.3 166.6,345.7 300.5,345.7 
			300.5,325 343.5,325 343.5,391.7 45.5,391.8 45.5,344.7 79.5,344.7 		"/>
	</g>
	<g>
		<linearGradient id="SVGID_1_" gradientUnits="userSpaceOnUse" x1="275.8523" y1="305.6838" x2="275.8523" y2="188.7174">
			<stop  offset="8.073434e-08" style="stop-color:#FF4400"/>
			<stop  offset="1" style="stop-color:#FFD100"/>
		</linearGradient>
		<path class="st3" d="M201.9,188.7h73v19h-18c0,0,0,44,0,58s14,19.2,18,19.2s9,0,9,0s23,0.8,23-29.2s0-46.8,0-46.8h-19v-20.2h61.9
			v20h-18.9c0,0,0,34.5,0,57s-13,40-56,40s-58-30.2-58-38.6c0-8.4,0-60.4,0-60.4h-15V188.7z"/>
		
			<linearGradient id="SVGID_00000084503474520039963890000004794530468001862075_" gradientUnits="userSpaceOnUse" x1="422.5855" y1="299.7174" x2="422.5855" y2="156.7174">
			<stop  offset="8.073434e-08" style="stop-color:#FF4400"/>
			<stop  offset="1" style="stop-color:#FFD100"/>
		</linearGradient>
		<polygon style="fill:url(#SVGID_00000084503474520039963890000004794530468001862075_);" points="341.1,157.2 407.6,157.2 
			462.9,252.7 462.9,176.9 441.9,176.9 441.9,156.7 504.1,156.7 504.1,176.7 484.9,176.7 484.9,299.7 442.9,299.7 385.9,194.7 
			385.9,281.7 404.9,281.7 404.9,299.7 341.9,299.7 341.9,280.7 361.9,280.7 361.9,176.7 341.1,176.7 		"/>
		
			<linearGradient id="SVGID_00000173860841990433586220000009542244252027072404_" gradientUnits="userSpaceOnUse" x1="556.9868" y1="303.7174" x2="556.9868" y2="170.119">
			<stop  offset="8.073434e-08" style="stop-color:#FF4400"/>
			<stop  offset="1" style="stop-color:#FFD100"/>
		</linearGradient>
		<path style="fill:url(#SVGID_00000173860841990433586220000009542244252027072404_);" d="M597.9,182.7V173h18.2v50.5h-16.2
			c0,0-3-35.8-30-35.8s-33,27-33,54s13,44,31,44s31-12,31-33h16c0,0,8,51-50,51c-57,0-67-36-67-68s16.2-65.6,59.1-65.6
			C583.9,170.1,597.9,182.7,597.9,182.7z"/>
		
			<linearGradient id="SVGID_00000105394992298552719640000013232582832097469602_" gradientUnits="userSpaceOnUse" x1="694.3967" y1="307.7174" x2="694.3967" y2="128.948">
			<stop  offset="8.073434e-08" style="stop-color:#FF4400"/>
			<stop  offset="1" style="stop-color:#FFD100"/>
		</linearGradient>
		<polygon style="fill:url(#SVGID_00000105394992298552719640000013232582832097469602_);" points="610.9,129.7 610.9,148.7 
			631.9,148.7 631.9,286.7 611.9,288.7 611.9,307.7 686.9,307.7 686.9,288.8 669.9,288.8 669.9,224.7 716.9,224.7 716.9,287.5 
			699.9,287.5 699.9,307.7 775.7,307.7 775.7,289.2 754.9,289.2 754.9,147.7 777.9,147.7 777.9,128.9 700.2,128.9 700.2,148.7 
			716.9,148.7 716.9,196.7 669.9,196.7 669.9,148.7 686.9,148.7 686.9,129.7 		"/>
		
			<linearGradient id="SVGID_00000155139249065048033400000001178604835362934929_" gradientUnits="userSpaceOnUse" x1="791.3967" y1="235.7347" x2="791.3967" y2="201.7174">
			<stop  offset="8.073434e-08" style="stop-color:#FF4400"/>
			<stop  offset="1" style="stop-color:#FFD100"/>
		</linearGradient>
		
			<rect x="767.9" y="201.7" style="fill:url(#SVGID_00000155139249065048033400000001178604835362934929_);" width="47" height="34"/>
		
			<linearGradient id="SVGID_00000047053884121215313980000011838164792266259352_" gradientUnits="userSpaceOnUse" x1="972.5067" y1="325.7174" x2="972.5067" y2="37.7174">
			<stop  offset="8.073434e-08" style="stop-color:#FF4400"/>
			<stop  offset="1" style="stop-color:#FFD100"/>
		</linearGradient>
		<path style="fill:url(#SVGID_00000047053884121215313980000011838164792266259352_);" d="M968.9,37.7c-97,0-141.8,49-141.8,151
			s63.8,137,138.8,137s152-25,152-150S1024.9,37.7,968.9,37.7z M968.9,263.7c-61,0-55-77-55-77c0-9-4-85,56-85s60,59,60,78
			S1029.9,263.7,968.9,263.7z"/>
		
			<linearGradient id="SVGID_00000008133092387945131640000004371774373119987375_" gradientUnits="userSpaceOnUse" x1="1194.4276" y1="328.7174" x2="1194.4276" y2="204.7067">
			<stop  offset="8.073434e-08" style="stop-color:#FF4400"/>
			<stop  offset="1" style="stop-color:#FFD100"/>
		</linearGradient>
		<path style="fill:url(#SVGID_00000008133092387945131640000004371774373119987375_);" d="M1115.9,223.7v-19h78v20H1174
			c0,0,0,44,0,58s9.9,24,23.9,24s30-7,30-22s0-59.9,0-59.9h-20v-20.1h65.1v21h-20.1c0,0,0,38,0,56s-19,47-66,47s-55-38-55-50
			s0-55,0-55H1115.9z"/>
		
			<linearGradient id="SVGID_00000133499832127003632390000011866790930139418275_" gradientUnits="userSpaceOnUse" x1="1334.3967" y1="307.7174" x2="1334.3967" y2="105.7174">
			<stop  offset="8.073434e-08" style="stop-color:#FF4400"/>
			<stop  offset="1" style="stop-color:#FFD100"/>
		</linearGradient>
		<polygon style="fill:url(#SVGID_00000133499832127003632390000011866790930139418275_);" points="1210.9,105.7 1210.9,176.4 
			1260.8,176.4 1260.8,143.8 1296.9,143.8 1296.9,267.7 1266,267.7 1266,307.7 1405.9,307.7 1405.9,268.8 1369.9,268.8 
			1369.9,145.7 1410.9,145.7 1410.9,176.7 1457.9,176.7 1457.9,105.7 		"/>
		
			<linearGradient id="SVGID_00000030450533715171887250000013104379819002234536_" gradientUnits="userSpaceOnUse" x1="1512.4609" y1="237.7174" x2="1512.4609" y2="80.7174">
			<stop  offset="8.073434e-08" style="stop-color:#FF4400"/>
			<stop  offset="1" style="stop-color:#FFD100"/>
		</linearGradient>
		
			<rect x="1478.9" y="80.7" style="fill:url(#SVGID_00000030450533715171887250000013104379819002234536_);" width="67.1" height="157"/>
		
			<linearGradient id="SVGID_00000000909926471824611810000004478901026896411826_" gradientUnits="userSpaceOnUse" x1="1511.9901" y1="319.77" x2="1511.9901" y2="266.7174">
			<stop  offset="8.073434e-08" style="stop-color:#FF4400"/>
			<stop  offset="1" style="stop-color:#FFD100"/>
		</linearGradient>
		
			<rect x="1482.9" y="266.7" style="fill:url(#SVGID_00000000909926471824611810000004478901026896411826_);" width="58.2" height="53.1"/>
		
			<linearGradient id="SVGID_00000180335802117778530140000005267632908351469699_" gradientUnits="userSpaceOnUse" x1="1603.9163" y1="319.77" x2="1603.9163" y2="265.7174">
			<stop  offset="8.073434e-08" style="stop-color:#FF4400"/>
			<stop  offset="1" style="stop-color:#FFD100"/>
		</linearGradient>
		
			<rect x="1571.9" y="265.7" style="fill:url(#SVGID_00000180335802117778530140000005267632908351469699_);" width="64" height="54.1"/>
		
			<linearGradient id="SVGID_00000067933580330436599620000000957216162696649863_" gradientUnits="userSpaceOnUse" x1="1602.9718" y1="238.7174" x2="1602.9718" y2="50.7174">
			<stop  offset="8.073434e-08" style="stop-color:#FF4400"/>
			<stop  offset="1" style="stop-color:#FFD100"/>
		</linearGradient>
		
			<rect x="1566.9" y="50.7" style="fill:url(#SVGID_00000067933580330436599620000000957216162696649863_);" width="72.2" height="188"/>
		
			<linearGradient id="SVGID_00000177451378276164054730000011098881359155623354_" gradientUnits="userSpaceOnUse" x1="188.5814" y1="385.8444" x2="188.5814" y2="61.0609">
			<stop  offset="8.073434e-08" style="stop-color:#FF4400"/>
			<stop  offset="1" style="stop-color:#FFD100"/>
		</linearGradient>
		<polygon style="fill:url(#SVGID_00000177451378276164054730000011098881359155623354_);" points="73.9,114.7 39.3,114.7 
			39.3,61.1 190.9,61.1 190.9,117.3 161,117.3 161,339.7 294.9,339.7 294.9,319 337.9,319 337.9,385.7 39.9,385.8 39.9,338.7 
			73.9,338.7 		"/>
	</g>
	<g class="st16">
		<polygon points="154.6,109.2 154.6,158.7 157.6,112.4 185.9,111.4 		"/>
		<polygon points="481.6,296.8 481.6,224.9 478.6,293.6 460.1,295.2 		"/>
		<polygon points="332.3,380.4 334.3,326.3 325.2,375 130.6,380.4 		"/>
		<polygon points="1402.1,306 1402.9,273 1397,301.7 1270.4,305 		"/>
		<polygon points="1536.8,315 1536.8,274.3 1531.8,310.7 1489.6,317.1 		"/>
		<polygon points="1542.1,232.4 1542.1,109.2 1537.1,228.2 1494.9,234.6 		"/>
		<polygon points="1635.9,234.2 1635.9,111 1630.9,230 1588.7,236.4 		"/>
		<polygon points="1631.1,315 1631.1,274.3 1626.1,310.7 1583.9,317.1 		"/>
		<polygon points="684.7,305.7 685.2,292.6 681.1,302.5 616.1,305.7 		"/>
		<polygon points="772.6,305.7 773.1,292.6 768.9,302.5 704,305.7 		"/>
		<path d="M610.9,267c1.6,6-2,36.9-51,35.4C588.8,299.7,607.5,289.1,610.9,267z"/>
		<path d="M329.4,258.8c-2.8,37.9-28.8,50.8-80.1,40.9C252,299.9,330,323.3,329.4,258.8z"/>
		<path d="M1248.9,279.3c-4.8,35.9-42.8,47.6-83.6,40.9C1161.6,320.3,1243.4,343.2,1248.9,279.3z"/>
		<path d="M1106.4,217.8c0,0-23.2,95.6-127.6,101.1C1045.7,321,1098.7,279.9,1106.4,217.8z"/>
	</g>
	<g class="st17">
		<polygon class="st18" points="112.9,197.1 118.4,208.2 130.6,210 121.7,218.6 123.8,230.8 112.9,225 102,230.8 104.1,218.6 
			95.2,210 107.4,208.2 		"/>
		<polygon class="st18" points="235.9,223.1 240.4,232.2 250.4,233.7 243.1,240.7 244.9,250.7 235.9,246 226.9,250.7 228.6,240.7 
			221.4,233.7 231.4,232.2 		"/>
		<polygon class="st18" points="423.9,213.7 427.5,221.1 435.7,222.3 429.8,228 431.2,236.1 423.9,232.3 416.6,236.1 418,228 
			412.1,222.3 420.3,221.1 		"/>
		<polygon class="st18" points="519.9,228.7 523.5,236.1 531.7,237.3 525.8,243 527.2,251.1 519.9,247.3 512.6,251.1 514,243 
			508.1,237.3 516.3,236.1 		"/>
		<polygon class="st18" points="652.9,162.7 655.9,168.8 662.6,169.8 657.7,174.5 658.9,181.1 652.9,178 646.9,181.1 648.1,174.5 
			643.2,169.8 649.9,168.8 		"/>
		<polygon class="st18" points="736.9,162.7 739.9,168.8 746.6,169.8 741.7,174.5 742.9,181.1 736.9,178 730.9,181.1 732.1,174.5 
			727.2,169.8 733.9,168.8 		"/>
		<polygon class="st18" points="867.9,143.8 873.2,154.4 884.9,156.1 876.4,164.4 878.4,176.1 867.9,170.6 857.4,176.1 859.4,164.4 
			850.9,156.1 862.6,154.4 		"/>
		<polygon class="st18" points="1077.9,143.8 1083.2,154.4 1094.9,156.1 1086.4,164.4 1088.4,176.1 1077.9,170.6 1067.4,176.1 
			1069.4,164.4 1060.9,156.1 1072.6,154.4 		"/>
		<polygon class="st18" points="1152.1,240.7 1156.2,248.9 1165.3,250.3 1158.7,256.7 1160.3,265.7 1152.1,261.4 1144,265.7 
			1145.6,256.7 1139,250.3 1148.1,248.9 		"/>
		<polygon class="st18" points="1338.1,173.7 1344.1,185.9 1357.6,187.9 1347.9,197.3 1350.2,210.7 1338.1,204.4 1326.1,210.7 
			1328.4,197.3 1318.7,187.9 1332.1,185.9 		"/>
		<polygon class="st18" points="1515.1,115.7 1521.1,127.9 1534.6,129.9 1524.9,139.3 1527.2,152.7 1515.1,146.4 1503.1,152.7 
			1505.4,139.3 1495.7,129.9 1509.1,127.9 		"/>
		<polygon class="st18" points="1604.1,115.7 1610.1,127.9 1623.6,129.9 1613.9,139.3 1616.2,152.7 1604.1,146.4 1592.1,152.7 
			1594.4,139.3 1584.7,129.9 1598.1,127.9 		"/>
		<polygon class="st18" points="43.9,101.7 45.9,67.4 182,64.4 49.9,70.7 		"/>
		<polygon class="st18" points="77.8,156.7 77.8,299.7 85.9,167.7 		"/>
		<polygon class="st18" points="1302.5,149.9 1302.5,240.7 1307,156.8 		"/>
		<polygon class="st18" points="42.9,342.5 42.9,364.3 45.9,345.7 67.9,340.7 		"/>
		<polygon class="st18" points="203.9,202.7 204.9,190.7 238.9,189.7 206.9,192.7 		"/>
		<polygon class="st18" points="290.9,202.7 291.9,190.7 325.9,189.7 293.9,192.7 		"/>
		<polygon class="st18" points="342.7,290.6 343.4,282.3 356.8,281.6 345.3,284.3 		"/>
		<polygon class="st18" points="614.2,299.4 614.9,291 629.2,289.4 616.8,293 		"/>
		<polygon class="st18" points="701.3,299.4 702,291 716.3,289.4 703.9,293 		"/>
		<polygon class="st18" points="1270.4,296.8 1270.4,272.7 1294.2,271 1273.3,276.7 		"/>
		<polygon class="st18" points="1488.1,307.7 1488.1,272.7 1527,270 1492.7,278 		"/>
		<polygon class="st18" points="1575.9,310.7 1575.9,270.3 1621.4,268.4 1580.4,275.6 		"/>
		<polygon class="st18" points="444.9,171.7 445.9,159.7 479.9,158.7 447.9,161.7 		"/>
		<polygon class="st18" points="342.9,171.7 343.9,160.1 397.9,158.7 346.3,162.8 		"/>
		<polygon class="st18" points="613.2,143.8 614.3,132.2 668.2,130.8 616.6,134.9 		"/>
		<polygon class="st18" points="702.6,143.8 703.7,132.2 748.6,130.8 706,134.9 		"/>
		<polygon class="st18" points="1117.9,219.7 1118.9,208.1 1163.9,206.7 1121.3,210.8 		"/>
		<polygon class="st18" points="1210.9,219.7 1211.9,208.1 1256.9,206.7 1214.3,210.8 		"/>
		<polygon class="st18" points="1217.3,164.4 1217.3,112.1 1388.8,109.2 1223.8,116.9 		"/>
		<polygon class="st18" points="1483.4,210.7 1483.4,84.5 1518.5,85.7 1489.9,89.3 		"/>
		<polygon class="st18" points="1572.5,182.8 1572.5,56.6 1607.5,57.8 1579,61.4 		"/>
		<path class="st18" d="M501.9,221.3c0,0,3-40.1,44.7-47.9C531.7,182.5,515.2,186.4,501.9,221.3z"/>
		<path class="st18" d="M836.7,143.8c0,0,23.2-95.6,127.6-101.1C897.4,40.6,844.4,81.6,836.7,143.8z"/>
		<path class="st18" d="M1037.4,186.7c0,0,7.2,88.1-73.1,86.4C1023.1,289.4,1048.7,233.5,1037.4,186.7z"/>
	</g>
</g>
</svg>
