<?xml version="1.0" encoding="utf-8"?>
<!-- Generator: Adobe Illustrator 25.4.1, SVG Export Plug-In . SVG Version: 6.00 Build 0)  -->
<svg version="1.1" xmlns="http://www.w3.org/2000/svg" xmlns:xlink="http://www.w3.org/1999/xlink" x="0px" y="0px"
	 viewBox="0 0 500 500" style="enable-background:new 0 0 500 500;" xml:space="preserve">
<g id="Layer_2">
</g>
<g id="Layer_1">
	<g>
		<g>
			<path d="M195.3,369.1v82.7h97.9v-82.7H195.3z M201.4,437.9v-61.8l69.6-2.9l-62.6,11L201.4,437.9z M285.9,444.4l-72.2,3.3
				l64.5-9.9l7.7-55.6V444.4z"/>
			<path d="M187.7,40.3v287.5H298V40.3H187.7z M196.2,242.3v-193l53.6,1.8l-43.7,5.5L196.2,242.3z M235.4,158.3l9.2-18.6l9.2,18.6
				l20.5,3l-14.9,14.5l3.5,20.5l-18.4-9.7l-18.4,9.7l3.5-20.5l-14.9-14.5L235.4,158.3z M293.3,321l-72.2,3.3l64.5-9.9l7.7-181.9V321
				z"/>
		</g>
	</g>
</g>
</svg>
